# xmcd
#
# Track frame offsets:
#	150
#	16956
#	34119
#	50611
#	62537
#	80434
#	95621
#	106809
#	124759
#	136499
#	151995
#
# Disc length: 2214 seconds
#
# Revision: 0
# Processed by: cddbd v1.4PL0 Copyright (c) Steve Scherf et al.
# Submitted via: dBpowerAMP V4.0
#
DISCID=8808a40b
DTITLE=Kelly Ford - It's Not Too Late
DYEAR=1900
DGENRE=
TTITLE0=What About You
TTITLE1=13th of July
TTITLE2=It's Not Too Late (To Turn This Thing Around)
TTITLE3=I'm Into Pleasin'
TTITLE4=Somewhere Under The Rainbow
TTITLE5=You'll Never Love In This Town Again
TTITLE6=Burned By The Same Fire Twice
TTITLE7=Custom Made
TTITLE8=Little Bit Of Love
TTITLE9=Right One Left
TTITLE10=Last Thing I Needed (Was A Heartache)
EXTD=
EXTT0=
EXTT1=
EXTT2=
EXTT3=
EXTT4=
EXTT5=
EXTT6=
EXTT7=
EXTT8=
EXTT9=
EXTT10=
PLAYORDER=
